# xmcd CD database file
#
# Track frame offsets:
#	150
#	11572
#	25607
#	34979
#	50668
#	66103
#	82789
#	94265
#	110619
#	123705
#	139336
#	152815
#	179387
#	190616
#	205945
#	220205
#	242900
#	257806
#	267014
#
# Disc length: 3778 seconds
#
# Revision: 0
# Processed by: cddbd v1.5.2PL0 Copyright (c) Steve Scherf et al.
# Submitted via: CDex 1.70beta2
#
DISCID=100ec013
DTITLE=Greyhound Doctors - Live at the dance hall
DYEAR=2006
DGENRE=Country
TTITLE0=Somedays you gotta dance
TTITLE1=Anymore good lovin
TTITLE2=Nothing can stop me
TTITLE3=She's going home with me
TTITLE4=Banks of the ohio
TTITLE5=Flesh and blood
TTITLE6=How many days
TTITLE7=Hillbilly highway
TTITLE8=Honky tonkin's what i do best
TTITLE9=Johnny come lately
TTITLE10=Hey good lookin'
TTITLE11=Travelin' soldier
TTITLE12=The graveyard shift
TTITLE13=Ring of fire
TTITLE14=Mercury blues
TTITLE15=Give it up or let me go
TTITLE16=Sharp dressed man
TTITLE17=Guitars, cadillacs
TTITLE18=Trail of tears
EXTD=YEAR: 2006
EXTT0=
EXTT1=
EXTT2=
EXTT3=
EXTT4=
EXTT5=
EXTT6=
EXTT7=
EXTT8=
EXTT9=
EXTT10=
EXTT11=
EXTT12=
EXTT13=
EXTT14=
EXTT15=
EXTT16=
EXTT17=
EXTT18=
PLAYORDER=
